<svg height="512pt" viewBox="0 0 512 512.00009" width="512pt" xmlns="http://www.w3.org/2000/svg"><path d="m28.820312 256c0-125.445312 101.691407-227.136719 227.132813-227.136719 63.214844 0 120.394531 25.820313 161.570313 67.492188 24.4375 27.859375-25.773438 120.148437-113.417969 207.792969-87.644531 87.648437-179.9375 137.855468-207.796875 113.417968-41.667969-41.175781-67.488282-98.355468-67.488282-161.566406zm321.867188 94.730469c-53.804688 53.800781-110.917969 95.652343-162.84375 122.015625 21.5 6.75 44.378906 10.386718 68.109375 10.386718 125.445313 0 227.136719-101.691406 227.136719-227.132812 0-23.730469-3.640625-46.609375-10.390625-68.113281-26.363281 51.929687-68.210938 109.042969-122.011719 162.84375zm0 0" fill="#a0cafe"/><path d="m483.089844 256c0 125.441406-101.691406 227.132812-227.136719 227.132812-23.726563 0-46.609375-3.636718-68.109375-10.386718 6.035156-3.066406 12.140625-6.339844 18.300781-9.816406 3.21875.136718 6.457031.207031 9.707031.207031 124.460938 0 225.53125-100.152344 227.015626-224.265625 11.445312-17.335938 21.425781-34.425782 29.832031-50.984375 6.75 21.503906 10.390625 44.382812 10.390625 68.113281zm-62.800782-118.757812c5.183594-18.226563 4.605469-32.484376-2.765624-40.886719-22.886719-23.160157-50.714844-41.421875-81.773438-53.078125 36.3125 22.625 65.769531 55.222656 84.539062 93.964844zm0 0" fill="#81b8fd"/><path d="m485.609375 26.34375c-30.132813-30.128906-91.078125-22.871094-161.582031 12.929688 35.722656 11.257812 67.402344 30.949218 92.566406 56.085937 26.59375 26.59375-23.769531 120.070313-112.488281 208.789063s-182.195313 139.082031-208.789063 112.488281c-25.96875-25.949219-45.085937-57.511719-56.070312-92.59375-35.816406 70.511719-43.082032 131.476562-12.945313 161.609375 52.320313 52.320312 197.550781-8.085938 324.386719-134.921875 126.832031-126.832031 187.242188-272.066407 134.921875-324.386719zm0 0" fill="#dfedff"/><path d="m485.609375 26.34375c-9.679687-9.679688-22.539063-15.5-37.875-17.757812 48.496094 54.125-11.980469 197.078124-137.046875 322.144531-103.367188 103.371093-218.957031 162.617187-286.511719 152.679687.6875.765625 1.394531 1.515625 2.125 2.242188 52.316407 52.320312 197.550781-8.089844 324.386719-134.921875 126.832031-126.835938 187.242188-272.066407 134.921875-324.386719zm0 0" fill="#c0dbff"/><path d="m490.910156 21.046875c-15.839844-15.847656-38.949218-22.800781-68.691406-20.671875-33.441406 2.394531-68.628906 15.765625-98.746094 30.785156-21.601562-6.453125-44.273437-9.792968-67.472656-9.796875-129.234375-.023437-234.609375 104.4375-234.679688 234.503907-.003906.121093-.003906.132812 0 .265624.011719 23.164063 3.351563 45.804688 9.792969 67.375-37.59375 75.332032-41.308593 136.257813-10.113281 167.445313 14.027344 14.027344 33.992188 21.046875 58.683594 21.046875 36.273437 0 76.429687-15.039062 108.855468-31.199219 21.527344 6.449219 44.167969 9.835938 67.460938 9.835938 129.640625-.027344 234.589844-104.945313 234.589844-234.636719 0-22.976562-3.3125-45.65625-9.84375-67.460938 6.667968-13.34375 12.367187-26.4375 16.996094-39.128906 1.417968-3.890625-.585938-8.195312-4.476563-9.613281-3.898437-1.417969-8.199219.585937-9.617187 4.476563-22.929688 62.902343-73.328126 136.21875-138.269532 201.148437-76.40625 76.414063-140.550781 109.300781-143.433594 111.304687-34.765624 19.527344-80.925781 39.75-120.816406 40.253907-48.550781.53125-69.957031-28.539063-65.621094-76.3125 2.027344-22.351563 9.800782-48.722657 22.636719-77.042969 11.816407 29.386719 29.65625 56.316406 52.894531 79.277344.105469.105468.214844.207031.328126.304687 21.769531 19.09375 64.738281.050781 90.011718-13.730469 82.148438-44.796874 183.234375-145.859374 228.050782-228.054687 23.246093-42.628906 27.996093-73.753906 13.734374-90.011719-.101562-.113281-.199218-.21875-.304687-.328125-22.960937-23.234375-49.890625-41.074219-79.273437-52.890625 29.429687-13.347656 56.824218-21.21875 79.703124-22.855468 61.175782-4.371094 82.53125 34.675781 70.367188 94.300781-.945312 4.640625 2.601562 9 7.355469 9 3.492187 0 6.617187-2.449219 7.339843-6.003907 8.21875-40.285156 2.1875-71.957031-17.441406-91.585937zm-152.308594 351.851563c3.742188 1.523437 7.433594 3.140624 11.070313 4.855468-7.785156 22.511719-17.71875 42.191406-29.457031 58.164063-17.003906 23.140625-36.488282 36.566406-56.761719 39.226562v-40.054687c25.34375-18.199219 50.636719-39.101563 75.148437-62.191406zm96.332032-109.398438h40.53125c-1.847656 54.757812-23.835938 104.496094-58.773438 142.027344-14.816406-13.953125-31.148437-25.78125-48.820312-35.367188 3.382812-11.273437 6.269531-23.113281 8.632812-35.429687 21.527344-23.203125 41.179688-47.203125 58.429688-71.230469zm-28.832032 152.660156c-26.59375 24.945313-59.378906 43.359375-95.773437 52.664063 24.644531-21.0625 41.945313-53.472657 52.804687-84.148438 15.488282 8.660157 29.859376 19.1875 42.96875 31.484375zm-157.648437 58.984375c-9.8125-1.28125-19.429687-5.085937-28.746094-11.367187 9.542969-5.65625 19.136719-11.742188 28.746094-18.234375zm227.011719-226.644531h-30.078125c9.152343-13.546875 17.507812-27.050781 24.972656-40.375 2.9375 13.226562 4.648437 26.730469 5.105469 40.375zm-119.074219 107.121094c-.6875 2.605468-1.402344 5.175781-2.140625 7.714844-1.285156-.59375-2.582031-1.175782-3.882812-1.746094 2.195312-2.152344 4.078124-4.019532 6.023437-5.96875zm-11.667969-107.121094h-81.269531v-78.441406c31.84375-.992188 62.585937-8.300782 90.789063-21.324219 6.292968 21.574219 10.769531 45.4375 12.980468 70.832031-6.9375 9.539063-14.460937 19.210938-22.5 28.933594zm-249.585937 157.101562c-22.335938-23.960937-38.734375-52.070312-48.460938-82.558593-.113281-.84375-.371093-1.664063-.757812-2.421875-5.609375-18.332032-8.824219-37.496094-9.476563-57.121094h30.621094c4.140625 0 7.496094-3.359375 7.496094-7.5s-3.355469-7.5-7.496094-7.5h-30.617188c1.847657-54.757812 23.835938-104.5 58.773438-142.03125 14.875 14.011719 31.265625 25.867188 48.800781 35.410156-9.738281 32.347656-15.199219 68.722656-15.835937 106.621094h-26.125c-4.140625 0-7.5 3.359375-7.5 7.5s3.359375 7.5 7.5 7.5h26.125c.644531 37.679688 6.132812 74.175781 15.871094 106.605469-17.582032 9.566406-34.015626 21.449219-48.917969 35.496093zm10.671875-309.761718c26.578125-24.933594 59.34375-43.34375 95.714844-52.648438-24.691407 21.085938-41.917969 53.652344-52.75 84.171875-15.386719-8.628906-29.808594-19.179687-42.964844-31.523437zm37.378906 167.660156h105.265625v78.449219c-31.832031.988281-62.578125 8.300781-90.789063 21.324219-8.855468-30.394532-13.855468-64.503907-14.476562-99.773438zm-.003906-15c.617187-35.480469 5.589844-69.480469 14.4375-99.785156 28.21875 13.039062 58.976562 20.351562 90.832031 21.34375v78.441406zm120.269531-93.449219v-55.515625c0-4.144531-3.355469-7.5-7.5-7.5-4.140625 0-7.5 3.355469-7.5 7.5v55.515625c-30.285156-1.007812-59.5-8.121093-86.230469-20.75 4.386719-12.628906 9.488282-24.488281 15.269532-35.398437 19.53125-36.867188 44.492187-58.589844 70.960937-62.050782v27.683594c0 4.140625 3.359375 7.5 7.5 7.5 4.144531 0 7.5-3.359375 7.5-7.5v-27.675781c35.324219 4.675781 67.015625 42.097656 86.199219 97.457031-26.722656 12.621094-55.925782 19.726563-86.199219 20.734375zm46.601563-112.019531c3.589843.902344 7.148437 1.898438 10.675781 2.980469.6875.335937 1.421875.566406 2.179687.679687 30.785156 9.804688 59.148438 26.417969 83.265625 49.074219-13.1875 12.382813-27.644531 22.964844-43.074219 31.613281-10.863281-30.6875-28-63.140625-53.046874-84.347656zm-203.070313 372.03125c12.84375-11.875 26.871094-22.058594 41.8125-30.433594 2.488281 7.019532 5.183594 13.808594 8.085937 20.335938-21.886718 9.878906-39.453124 13.445312-49.898437 10.097656zm63.375-16.703125c-2.921875-6.613281-5.628906-13.515625-8.105469-20.667969 21.761719-10.273437 45.167969-16.898437 69.453125-19.546875-18.929687 14.574219-40.214843 29.097657-61.347656 40.214844zm93.09375-66.371094v-68.488281h68.492187c-20.976562 23.914062-44.570312 47.507812-68.492187 68.488281zm132.808594-157.746093c-4.679688 8.582031-10.035157 17.449218-15.996094 26.511718-2.691406-20.628906-6.878906-40.429687-12.417969-58.851562 16.984375-9.238282 32.902344-20.652344 47.402344-34.089844 3.695312 13.246094-3.003906 37.117188-18.988281 66.429688zm0 0"/></svg>